<svg width="39" height="38" viewBox="0 0 39 38" fill="none" xmlns="http://www.w3.org/2000/svg">
<rect x="0.25" y="0.25" width="38.5" height="37.5" rx="18.75" fill="white" stroke="#AA8845" stroke-width="0.5"/>
<path d="M22.5 24V24.625C22.5 25.288 22.2366 25.9239 21.7678 26.3928C21.2989 26.8616 20.6631 27.125 20 27.125C19.337 27.125 18.7011 26.8616 18.2322 26.3928C17.7634 25.9239 17.5 25.288 17.5 24.625V24M26.7063 22.7277C25.7031 21.5 24.9949 20.875 24.9949 17.4902C24.9949 14.3906 23.4121 13.2863 22.1094 12.75C21.9363 12.6789 21.7734 12.5156 21.7207 12.3379C21.4922 11.5602 20.8516 10.875 20 10.875C19.1484 10.875 18.5074 11.5605 18.2813 12.3387C18.2285 12.5184 18.0656 12.6789 17.8926 12.75C16.5883 13.2871 15.007 14.3875 15.007 17.4902C15.0051 20.875 14.2969 21.5 13.2938 22.7277C12.8781 23.2363 13.2422 24 13.9692 24H26.0348C26.7578 24 27.1195 23.234 26.7063 22.7277Z" stroke="black" stroke-width="1.25" stroke-linecap="round" stroke-linejoin="round"/>
</svg>
